<svg xmlns="http://www.w3.org/2000/svg" width="17" height="17" viewBox="0 0 17 17" fill="none">
  <path d="M8.39996 16.1689C12.8182 16.1689 16.4 12.5872 16.4 8.16895C16.4 3.75067 12.8182 0.168945 8.39996 0.168945C3.98169 0.168945 0.399963 3.75067 0.399963 8.16895C0.399963 12.5872 3.98169 16.1689 8.39996 16.1689Z" fill="#DFE3FF"/>
  <path d="M6.79741 10.1104L11.3134 5.3821C11.5848 5.09789 12.025 5.09789 12.2964 5.3821C12.5679 5.66632 12.5679 6.12714 12.2964 6.41136L6.79741 12.1689L3.60355 8.82486C3.3321 8.54064 3.3321 8.07983 3.60355 7.79561C3.875 7.51139 4.31511 7.51139 4.58657 7.79561L6.79741 10.1104Z" fill="#40196D"/>
</svg>
